<svg data-v-fde0c5aa="" xmlns="http://www.w3.org/2000/svg" viewBox="0 0 300 300" class="iconLeft"><!----><defs data-v-fde0c5aa=""><!----></defs><rect data-v-fde0c5aa="" fill="transparent" x="0" y="0" width="300px" height="300px" class="logo-background-square"></rect><defs data-v-fde0c5aa=""><!----></defs><g data-v-fde0c5aa="" id="3476cc01-a66f-4a4b-87bd-e26385294f7c" fill="#FFFFFF" transform="matrix(2.741177167854214,0,0,2.741177167854214,93.93948125351851,123.04052244958619)"><path d="M4.61 14.49L4.61 14.49L4.61 14.49Q4.41 14.66 4.07 14.76L4.07 14.76L4.07 14.76Q3.74 14.87 3.28 14.87L3.28 14.87L3.28 14.87Q2.70 14.87 2.28 14.71L2.28 14.71L2.28 14.71Q1.86 14.55 1.72 14.25L1.72 14.25L1.72 14.25Q1.57 13.92 1.36 13.19L1.36 13.19L1.36 13.19Q1.16 12.46 0.97 11.59L0.97 11.59L0.97 11.59Q0.77 10.72 0.59 9.83L0.59 9.83L0.59 9.83Q0.42 8.93 0.32 8.25L0.32 8.25L0.32 8.25Q0.52 8.05 0.85 7.90L0.85 7.90L0.85 7.90Q1.18 7.76 1.57 7.76L1.57 7.76L1.57 7.76Q2.06 7.76 2.37 7.97L2.37 7.97L2.37 7.97Q2.69 8.19 2.76 8.72L2.76 8.72L2.76 8.72Q2.90 9.79 3.00 10.48L3.00 10.48L3.00 10.48Q3.09 11.17 3.16 11.61L3.16 11.61L3.16 11.61Q3.22 12.05 3.25 12.29L3.25 12.29L3.25 12.29Q3.29 12.52 3.32 12.66L3.32 12.66L3.37 12.66L3.37 12.66Q3.42 12.43 3.52 12.01L3.52 12.01L3.52 12.01Q3.63 11.58 3.77 11.03L3.77 11.03L3.77 11.03Q3.91 10.49 4.06 9.85L4.06 9.85L4.06 9.85Q4.21 9.21 4.37 8.58L4.37 8.58L4.37 8.58Q4.65 8.43 4.92 8.34L4.92 8.34L4.92 8.34Q5.19 8.26 5.60 8.26L5.60 8.26L5.60 8.26Q6.09 8.26 6.44 8.41L6.44 8.41L6.44 8.41Q6.79 8.57 6.89 8.89L6.89 8.89L6.89 8.89Q7.06 9.51 7.21 10.09L7.21 10.09L7.21 10.09Q7.36 10.67 7.49 11.17L7.49 11.17L7.49 11.17Q7.62 11.66 7.71 12.05L7.71 12.05L7.71 12.05Q7.81 12.43 7.85 12.66L7.85 12.66L7.92 12.66L7.92 12.66Q8.08 11.58 8.22 10.42L8.22 10.42L8.22 10.42Q8.37 9.25 8.50 8.05L8.50 8.05L8.50 8.05Q8.75 7.90 9.03 7.83L9.03 7.83L9.03 7.83Q9.31 7.76 9.59 7.76L9.59 7.76L9.59 7.76Q10.08 7.76 10.40 7.97L10.40 7.97L10.40 7.97Q10.72 8.18 10.72 8.69L10.72 8.69L10.72 8.69Q10.72 8.92 10.65 9.37L10.65 9.37L10.65 9.37Q10.58 9.81 10.47 10.37L10.47 10.37L10.47 10.37Q10.36 10.93 10.21 11.55L10.21 11.55L10.21 11.55Q10.07 12.17 9.92 12.74L9.92 12.74L9.92 12.74Q9.77 13.31 9.64 13.78L9.64 13.78L9.64 13.78Q9.51 14.24 9.41 14.49L9.41 14.49L9.41 14.49Q9.21 14.66 8.81 14.76L8.81 14.76L8.81 14.76Q8.40 14.87 7.94 14.87L7.94 14.87L7.94 14.87Q6.76 14.87 6.55 14.28L6.55 14.28L6.55 14.28Q6.47 14.03 6.34 13.64L6.34 13.64L6.34 13.64Q6.22 13.26 6.08 12.80L6.08 12.80L6.08 12.80Q5.94 12.33 5.81 11.84L5.81 11.84L5.81 11.84Q5.68 11.34 5.60 10.88L5.60 10.88L5.60 10.88Q5.50 11.37 5.36 11.89L5.36 11.89L5.36 11.89Q5.22 12.42 5.08 12.92L5.08 12.92L5.08 12.92Q4.93 13.41 4.80 13.83L4.80 13.83L4.80 13.83Q4.68 14.24 4.61 14.49ZM15.40 14.92L15.40 14.92L15.40 14.92Q14.57 14.92 13.87 14.69L13.87 14.69L13.87 14.69Q13.16 14.46 12.63 14.00L12.63 14.00L12.63 14.00Q12.11 13.54 11.81 12.84L11.81 12.84L11.81 12.84Q11.51 12.14 11.51 11.20L11.51 11.20L11.51 11.20Q11.51 10.28 11.81 9.61L11.81 9.61L11.81 9.61Q12.11 8.95 12.60 8.52L12.60 8.52L12.60 8.52Q13.09 8.09 13.72 7.89L13.72 7.89L13.72 7.89Q14.35 7.69 15.01 7.69L15.01 7.69L15.01 7.69Q15.75 7.69 16.36 7.91L16.36 7.91L16.36 7.91Q16.97 8.13 17.41 8.53L17.41 8.53L17.41 8.53Q17.85 8.92 18.09 9.46L18.09 9.46L18.09 9.46Q18.34 10.01 18.34 10.65L18.34 10.65L18.34 10.65Q18.34 11.13 18.07 11.38L18.07 11.38L18.07 11.38Q17.81 11.63 17.33 11.70L17.33 11.70L13.87 12.22L13.87 12.22Q14.03 12.68 14.50 12.92L14.50 12.92L14.50 12.92Q14.98 13.15 15.60 13.15L15.60 13.15L15.60 13.15Q16.17 13.15 16.68 13.00L16.68 13.00L16.68 13.00Q17.19 12.85 17.51 12.66L17.51 12.66L17.51 12.66Q17.74 12.80 17.89 13.05L17.89 13.05L17.89 13.05Q18.05 13.30 18.05 13.58L18.05 13.58L18.05 13.58Q18.05 14.21 17.46 14.52L17.46 14.52L17.46 14.52Q17.01 14.76 16.45 14.84L16.45 14.84L16.45 14.84Q15.89 14.92 15.40 14.92ZM15.01 9.42L15.01 9.42L15.01 9.42Q14.67 9.42 14.43 9.53L14.43 9.53L14.43 9.53Q14.18 9.65 14.03 9.82L14.03 9.82L14.03 9.82Q13.87 10.00 13.80 10.21L13.80 10.21L13.80 10.21Q13.72 10.43 13.71 10.65L13.71 10.65L16.10 10.26L16.10 10.26Q16.06 9.98 15.79 9.70L15.79 9.70L15.79 9.70Q15.53 9.42 15.01 9.42ZM19.52 13.05L19.52 5.59L19.52 5.59Q19.66 5.54 19.96 5.50L19.96 5.50L19.96 5.50Q20.27 5.45 20.59 5.45L20.59 5.45L20.59 5.45Q20.90 5.45 21.15 5.49L21.15 5.49L21.15 5.49Q21.39 5.53 21.56 5.66L21.56 5.66L21.56 5.66Q21.73 5.78 21.81 6.00L21.81 6.00L21.81 6.00Q21.90 6.22 21.90 6.57L21.90 6.57L21.90 7.94L21.90 7.94Q22.25 7.80 22.56 7.74L22.56 7.74L22.56 7.74Q22.88 7.69 23.25 7.69L23.25 7.69L23.25 7.69Q23.93 7.69 24.53 7.92L24.53 7.92L24.53 7.92Q25.13 8.16 25.59 8.62L25.59 8.62L25.59 8.62Q26.05 9.07 26.32 9.74L26.32 9.74L26.32 9.74Q26.59 10.42 26.59 11.30L26.59 11.30L26.59 11.30Q26.59 12.21 26.31 12.89L26.31 12.89L26.31 12.89Q26.04 13.57 25.55 14.01L25.55 14.01L25.55 14.01Q25.06 14.46 24.35 14.69L24.35 14.69L24.35 14.69Q23.65 14.92 22.79 14.92L22.79 14.92L22.79 14.92Q21.87 14.92 21.22 14.71L21.22 14.71L21.22 14.71Q20.58 14.49 20.13 14.17L20.13 14.17L20.13 14.17Q19.52 13.73 19.52 13.05L19.52 13.05ZM22.79 13.05L22.79 13.05L22.79 13.05Q23.44 13.05 23.79 12.61L23.79 12.61L23.79 12.61Q24.15 12.17 24.15 11.30L24.15 11.30L24.15 11.30Q24.15 10.42 23.79 9.98L23.79 9.98L23.79 9.98Q23.42 9.55 22.81 9.55L22.81 9.55L22.81 9.55Q22.53 9.55 22.32 9.60L22.32 9.60L22.32 9.60Q22.12 9.66 21.88 9.77L21.88 9.77L21.88 12.82L21.88 12.82Q22.04 12.92 22.25 12.99L22.25 12.99L22.25 12.99Q22.47 13.05 22.79 13.05ZM27.45 11.30L27.45 11.30L27.45 11.30Q27.45 10.37 27.73 9.70L27.73 9.70L27.73 9.70Q28.01 9.02 28.51 8.57L28.51 8.57L28.51 8.57Q29.01 8.12 29.67 7.90L29.67 7.90L29.67 7.90Q30.34 7.69 31.11 7.69L31.11 7.69L31.11 7.69Q31.39 7.69 31.65 7.74L31.65 7.74L31.65 7.74Q31.92 7.78 32.09 7.85L32.09 7.85L32.09 5.59L32.09 5.59Q32.23 5.54 32.54 5.50L32.54 5.50L32.54 5.50Q32.84 5.45 33.17 5.45L33.17 5.45L33.17 5.45Q33.47 5.45 33.72 5.49L33.72 5.49L33.72 5.49Q33.96 5.53 34.13 5.66L34.13 5.66L34.13 5.66Q34.30 5.78 34.38 6.00L34.38 6.00L34.38 6.00Q34.47 6.22 34.47 6.57L34.47 6.57L34.47 13.20L34.47 13.20Q34.47 13.86 33.85 14.25L33.85 14.25L33.85 14.25Q33.45 14.52 32.80 14.72L32.80 14.72L32.80 14.72Q32.16 14.92 31.32 14.92L31.32 14.92L31.32 14.92Q30.41 14.92 29.69 14.67L29.69 14.67L29.69 14.67Q28.97 14.42 28.47 13.94L28.47 13.94L28.47 13.94Q27.97 13.47 27.71 12.80L27.71 12.80L27.71 12.80Q27.45 12.14 27.45 11.30ZM31.43 9.55L31.43 9.55L31.43 9.55Q30.67 9.55 30.27 9.98L30.27 9.98L30.27 9.98Q29.86 10.42 29.86 11.30L29.86 11.30L29.86 11.30Q29.86 12.17 30.24 12.61L30.24 12.61L30.24 12.61Q30.62 13.05 31.33 13.05L31.33 13.05L31.33 13.05Q31.58 13.05 31.79 12.97L31.79 12.97L31.79 12.97Q31.99 12.89 32.10 12.80L32.10 12.80L32.10 9.72L32.10 9.72Q31.82 9.55 31.43 9.55ZM38.33 9.91L38.33 14.69L38.33 14.69Q38.19 14.73 37.89 14.77L37.89 14.77L37.89 14.77Q37.59 14.81 37.27 14.81L37.27 14.81L37.27 14.81Q36.96 14.81 36.71 14.77L36.71 14.77L36.71 14.77Q36.47 14.73 36.30 14.60L36.30 14.60L36.30 14.60Q36.13 14.48 36.04 14.26L36.04 14.26L36.04 14.26Q35.95 14.04 35.95 13.69L35.95 13.69L35.95 9.49L35.95 9.49Q35.95 9.17 36.07 8.94L36.07 8.94L36.07 8.94Q36.19 8.71 36.41 8.53L36.41 8.53L36.41 8.53Q36.64 8.34 36.97 8.20L36.97 8.20L36.97 8.20Q37.30 8.05 37.67 7.94L37.67 7.94L37.67 7.94Q38.05 7.83 38.46 7.76L38.46 7.76L38.46 7.76Q38.86 7.70 39.27 7.70L39.27 7.70L39.27 7.70Q39.94 7.70 40.33 7.96L40.33 7.96L40.33 7.96Q40.73 8.22 40.73 8.81L40.73 8.81L40.73 8.81Q40.73 9.00 40.67 9.19L40.67 9.19L40.67 9.19Q40.61 9.38 40.53 9.53L40.53 9.53L40.53 9.53Q40.24 9.53 39.93 9.56L39.93 9.56L39.93 9.56Q39.62 9.59 39.33 9.65L39.33 9.65L39.33 9.65Q39.03 9.70 38.77 9.77L38.77 9.77L38.77 9.77Q38.51 9.83 38.33 9.91L38.33 9.91ZM48.75 11.30L48.75 11.30L48.75 11.30Q48.75 12.17 48.48 12.85L48.48 12.85L48.48 12.85Q48.22 13.52 47.73 13.99L47.73 13.99L47.73 13.99Q47.25 14.45 46.58 14.69L46.58 14.69L46.58 14.69Q45.91 14.92 45.08 14.92L45.08 14.92L45.08 14.92Q44.25 14.92 43.58 14.67L43.58 14.67L43.58 14.67Q42.91 14.42 42.43 13.95L42.43 13.95L42.43 13.95Q41.94 13.48 41.68 12.81L41.68 12.81L41.68 12.81Q41.41 12.14 41.41 11.30L41.41 11.30L41.41 11.30Q41.41 10.47 41.68 9.80L41.68 9.80L41.68 9.80Q41.94 9.13 42.43 8.66L42.43 8.66L42.43 8.66Q42.91 8.19 43.58 7.94L43.58 7.94L43.58 7.94Q44.25 7.69 45.08 7.69L45.08 7.69L45.08 7.69Q45.91 7.69 46.58 7.95L46.58 7.95L46.58 7.95Q47.25 8.20 47.73 8.67L47.73 8.67L47.73 8.67Q48.22 9.14 48.48 9.81L48.48 9.81L48.48 9.81Q48.75 10.49 48.75 11.30ZM43.85 11.30L43.85 11.30L43.85 11.30Q43.85 12.15 44.18 12.61L44.18 12.61L44.18 12.61Q44.51 13.06 45.09 13.06L45.09 13.06L45.09 13.06Q45.68 13.06 46.00 12.60L46.00 12.60L46.00 12.60Q46.31 12.14 46.31 11.30L46.31 11.30L46.31 11.30Q46.31 10.46 45.99 10.00L45.99 10.00L45.99 10.00Q45.67 9.55 45.08 9.55L45.08 9.55L45.08 9.55Q44.49 9.55 44.17 10.00L44.17 10.00L44.17 10.00Q43.85 10.46 43.85 11.30ZM49.85 6.01L49.85 6.01L49.85 6.01Q49.85 5.47 50.21 5.11L50.21 5.11L50.21 5.11Q50.57 4.75 51.16 4.75L51.16 4.75L51.16 4.75Q51.74 4.75 52.10 5.11L52.10 5.11L52.10 5.11Q52.46 5.47 52.46 6.01L52.46 6.01L52.46 6.01Q52.46 6.54 52.10 6.90L52.10 6.90L52.10 6.90Q51.74 7.27 51.16 7.27L51.16 7.27L51.16 7.27Q50.57 7.27 50.21 6.90L50.21 6.90L50.21 6.90Q49.85 6.54 49.85 6.01ZM52.35 8.99L52.35 14.69L52.35 14.69Q52.19 14.71 51.89 14.76L51.89 14.76L51.89 14.76Q51.59 14.81 51.28 14.81L51.28 14.81L51.28 14.81Q50.97 14.81 50.73 14.77L50.73 14.77L50.73 14.77Q50.48 14.73 50.32 14.60L50.32 14.60L50.32 14.60Q50.15 14.48 50.06 14.26L50.06 14.26L50.06 14.26Q49.97 14.04 49.97 13.69L49.97 13.69L49.97 7.99L49.97 7.99Q50.12 7.97 50.42 7.92L50.42 7.92L50.42 7.92Q50.72 7.87 51.03 7.87L51.03 7.87L51.03 7.87Q51.34 7.87 51.58 7.91L51.58 7.91L51.58 7.91Q51.83 7.95 52.00 8.08L52.00 8.08L52.00 8.08Q52.16 8.20 52.25 8.42L52.25 8.42L52.25 8.42Q52.35 8.64 52.35 8.99L52.35 8.99ZM53.56 11.30L53.56 11.30L53.56 11.30Q53.56 10.37 53.84 9.70L53.84 9.70L53.84 9.70Q54.12 9.02 54.62 8.57L54.62 8.57L54.62 8.57Q55.12 8.12 55.78 7.90L55.78 7.90L55.78 7.90Q56.45 7.69 57.22 7.69L57.22 7.69L57.22 7.69Q57.50 7.69 57.76 7.74L57.76 7.74L57.76 7.74Q58.03 7.78 58.20 7.85L58.20 7.85L58.20 5.59L58.20 5.59Q58.34 5.54 58.65 5.50L58.65 5.50L58.65 5.50Q58.95 5.45 59.28 5.45L59.28 5.45L59.28 5.45Q59.58 5.45 59.83 5.49L59.83 5.49L59.83 5.49Q60.07 5.53 60.24 5.66L60.24 5.66L60.24 5.66Q60.41 5.78 60.49 6.00L60.49 6.00L60.49 6.00Q60.58 6.22 60.58 6.57L60.58 6.57L60.58 13.20L60.58 13.20Q60.58 13.86 59.96 14.25L59.96 14.25L59.96 14.25Q59.56 14.52 58.91 14.72L58.91 14.72L58.91 14.72Q58.27 14.92 57.43 14.92L57.43 14.92L57.43 14.92Q56.52 14.92 55.80 14.67L55.80 14.67L55.80 14.67Q55.08 14.42 54.58 13.94L54.58 13.94L54.58 13.94Q54.08 13.47 53.82 12.80L53.82 12.80L53.82 12.80Q53.56 12.14 53.56 11.30ZM57.54 9.55L57.54 9.55L57.54 9.55Q56.78 9.55 56.38 9.98L56.38 9.98L56.38 9.98Q55.97 10.42 55.97 11.30L55.97 11.30L55.97 11.30Q55.97 12.17 56.35 12.61L56.35 12.61L56.35 12.61Q56.73 13.05 57.44 13.05L57.44 13.05L57.44 13.05Q57.69 13.05 57.90 12.97L57.90 12.97L57.90 12.97Q58.10 12.89 58.21 12.80L58.21 12.80L58.21 9.72L58.21 9.72Q57.93 9.55 57.54 9.55Z"></path></g><defs data-v-fde0c5aa=""><!----></defs><g data-v-fde0c5aa="" id="fe4b6962-7f88-4958-b930-d2606a644aee" stroke="none" fill="#45D0D3" transform="matrix(0.1633463203489018,0,0,0.1633463203489018,38.03984415581318,127.13151515115375)"><path d="M140 12C69.42 12 12 69.422 12 140.002 12 210.58 69.42 268 140 268c70.579 0 128-57.42 128-127.998C268 69.422 210.579 12 140 12zm0 35.972c20.581 0 39.399 6.068 53.91 16.095l-9.112 8.773-1.193 1.151a80.953 80.953 0 0 0-11.377-5.188 86.636 86.636 0 0 0-15.897-4.139 91.863 91.863 0 0 0-13.029-1.074 147.73 147.73 0 0 0-3.301-5.155 147.745 147.745 0 0 0-3.301 5.156 92.067 92.067 0 0 0-13.032 1.076 86.41 86.41 0 0 0-15.896 4.14A80.904 80.904 0 0 0 96.4 73.995l-1.2-1.154-9.109-8.775C100.6 54.039 119.417 47.972 140 47.972zm31.991 41.844a12.695 12.695 0 0 0-.203 1.95l-.077 1.738-.155 3.479-.523 11.81h-62.065l-.524-11.81-.153-3.479-.077-1.738a12.962 12.962 0 0 0-.203-1.95c-.494-2.545-1.479-4.819-2.845-6.92a14.527 14.527 0 0 0-1.15-1.512c-.466-.537-.87-.884-1.291-1.299l-2.507-2.414-2.51-2.418a79.588 79.588 0 0 1 10.54-5.216 86.16 86.16 0 0 1 15.555-4.63 91.585 91.585 0 0 1 12.8-1.661 166.957 166.957 0 0 0-3.133 5.35c-4.836.684-9.631 1.506-14.534 2.384 4.44 1.928 8.287 4.207 11.696 6.509-.365 3.324-.758 6.563-1.443 9.841 3.603-1.548 7.148-3.091 10.813-4.646 3.665 1.555 7.209 3.098 10.814 4.646-.688-3.278-1.083-6.517-1.446-9.841 3.411-2.302 7.26-4.581 11.698-6.509-4.901-.878-9.694-1.7-14.534-2.384a165.1 165.1 0 0 0-3.133-5.35c4.305.26 8.585.805 12.797 1.663a85.962 85.962 0 0 1 15.554 4.632 79.514 79.514 0 0 1 10.539 5.216l-2.505 2.413-2.508 2.415c-.42.414-.824.761-1.291 1.299-.426.483-.801.991-1.15 1.512-1.365 2.101-2.352 4.375-2.846 6.92zm16.988 24.572c5.446 0 9.876 4.432 9.876 9.879v60.948c0 5.447-4.43 9.878-9.876 9.878h-97.96c-5.446 0-9.877-4.431-9.877-9.878v-60.948c0-5.447 4.431-9.879 9.877-9.879h97.96zm-134.5 16.713a22.807 22.807 0 0 0-4.595 3.165c-3.853 3.401-6.404 8.104-7.01 12.975 1.321-4.731 4.433-8.731 8.331-11.26a20.234 20.234 0 0 1 3.273-1.731v33.9a20.33 20.33 0 0 1-3.273-1.729c-3.9-2.53-7.012-6.53-8.332-11.262.605 4.871 3.156 9.574 7.01 12.976a23.166 23.166 0 0 0 4.596 3.166v3.056c-10.59-3.449-18.226-12.998-18.226-24.217 0-11.218 7.636-20.766 18.226-24.216v5.177zm2.474 56.409v-72.384c0-20.409 11.274-38.679 29.044-50.994l8.307 9.561.882 1.015c-5.525 3.196-10.677 7.065-15.185 11.661-7.755 7.919-13.484 18.113-15.401 29.252a50.64 50.64 0 0 0-.749 8.401l-.071 8.175-.143 16.351-.231 32.7-.043 8.175-.012 2.043c0 .681-.017 1.346.012 2.126.057 1.523.253 3.007.592 4.479 1.184 5.188 4.191 9.899 8.328 13.233-9.018-4.151-15.33-13.261-15.33-23.794zm131.442 65.637c-.026-.051-.046-.106-.077-.156l-.042-.065c-1.981-3.145-4.632-5.925-7.538-8.15-2.924-2.238-6.143-4.005-9.493-5.356a46.478 46.478 0 0 0-6.194-1.986 7.123 7.123 0 0 1-.642 1.15 44.957 44.957 0 0 1 6.069 2.524c3.086 1.57 5.967 3.507 8.476 5.802 2.432 2.242 4.46 4.775 5.985 7.657-13.922 5.469-29.075 8.487-44.938 8.487-15.862 0-31.016-3.019-44.938-8.486 1.491-2.833 3.553-5.423 5.985-7.658 2.508-2.295 5.389-4.23 8.475-5.802a45.05 45.05 0 0 1 6.064-2.523 7.287 7.287 0 0 1-.642-1.15 46.698 46.698 0 0 0-6.189 1.985c-3.35 1.352-6.568 3.118-9.494 5.356-2.913 2.242-5.533 4.971-7.557 8.186a1.983 1.983 0 0 0-.08.142c-.008.016-.012.03-.017.046a122.624 122.624 0 0 1-11.857-5.839c6.987-8.277 19.387-13.787 33.528-13.787h1.576c.094-.199.2-.392.327-.575-.469-.871-.707-1.742-.71-2.605 0-.862.245-1.651.71-2.324-.471-.871-.707-1.742-.71-2.606 0-.861.246-1.649.71-2.322-.469-.871-.707-1.743-.71-2.605 0-.863.246-1.652.71-2.324a6.043 6.043 0 0 1-.575-1.529l2.622.005c.126.378.322.713.521.999.741.989 1.673 1.708 2.629 2.359 1.931 1.28 4.038 2.215 6.192 2.964 2.162.738 4.395 1.241 6.641 1.572 2.249.329 4.524.457 6.787.374a37.44 37.44 0 0 0 6.786-.375c2.249-.332 4.479-.835 6.642-1.573 2.156-.749 4.262-1.684 6.192-2.966.956-.65 1.89-1.369 2.628-2.358.2-.284.396-.62.521-.994l2.624-.005a5.935 5.935 0 0 1-.576 1.529c.466.67.71 1.459.71 2.322 0 .861-.238 1.734-.71 2.607a4.01 4.01 0 0 1 .71 2.32c0 .863-.238 1.735-.71 2.608.466.673.71 1.461.71 2.322s-.237 1.733-.709 2.606c.128.184.233.376.327.574h1.576c14.144 0 26.544 5.51 33.528 13.787a122.648 122.648 0 0 1-11.853 5.836zm-37.279-34.012c-3.614 1.024-7.363 1.552-11.119 1.498-3.753.051-7.504-.475-11.116-1.5-2.161-.632-4.317-1.427-6.3-2.489l.613.002c1.1.527 2.229.984 3.377 1.382 2.162.739 4.394 1.241 6.641 1.572 2.249.33 4.524.457 6.787.374 2.262.083 4.537-.044 6.786-.375s4.479-.835 6.642-1.573a32.313 32.313 0 0 0 3.369-1.379l.62-.001c-1.982 1.061-4.14 1.857-6.3 2.489zm8.252-1.904c.337-.01.768.124.602.35-1.443 1.942-9.746 4.964-12.1 4.403-.271-.064-.03-.444.236-.653l11.262-4.1zm-27.474 4.1c.263.209.504.589.234.653-2.354.561-10.656-2.461-12.098-4.403-.168-.226.262-.359.599-.35l11.265 4.1zm71.506-12.659a19.476 19.476 0 0 1-6.687 2.76 19.164 19.164 0 0 1-3.605.386l-4.057-.004-16.351-.028-81.75.031-4.055.004a19.264 19.264 0 0 1-3.61-.386 19.402 19.402 0 0 1-6.689-2.755c-4.082-2.651-7.124-6.899-8.256-11.646a19.178 19.178 0 0 1-.519-3.606c-.03-.581-.024-1.279-.029-1.963l-.011-2.043-.043-8.175-.232-32.7-.143-16.351-.071-8.175c-.025-2.647.141-5.27.528-7.88 1.528-10.46 6.688-20.271 13.954-28.093 4.252-4.646 9.21-8.634 14.6-11.973l2.495 2.873 2.284 2.628c.37.434.802.895 1.056 1.267.308.417.584.87.84 1.338 1.007 1.878 1.697 4.025 1.896 6.066.049.533.049.95.018 1.519l-.076 1.738-.154 3.479-.525 11.81H91.019c-8.51 0-15.473 6.962-15.473 15.474v60.948c0 8.51 6.963 15.473 15.473 15.473h97.961c8.513 0 15.474-6.963 15.474-15.473v-60.948c0-8.512-6.961-15.474-15.474-15.474h-13.19l-.523-11.81-.154-3.479-.078-1.738a9.576 9.576 0 0 1 .02-1.519c.198-2.041.891-4.188 1.896-6.066.256-.469.533-.922.838-1.339.256-.372.687-.833 1.056-1.267l2.285-2.627 2.492-2.868c5.388 3.337 10.346 7.325 14.597 11.972 7.268 7.817 12.426 17.63 13.953 28.088.188 1.304.342 2.611.417 3.926.055.661.071 1.303.097 1.949l.018 2.003-.072 8.175-.143 16.351-.23 32.7-.044 8.176-.01 2.043c-.007.692 0 1.367-.03 1.951a19.151 19.151 0 0 1-.518 3.616c-1.135 4.744-4.175 8.992-8.257 11.642zm19.647-21.162c0 10.52-6.298 19.619-15.296 23.777 4.123-3.335 7.121-8.04 8.302-13.218.339-1.468.537-2.968.591-4.47.029-.778.012-1.468.012-2.137l-.01-2.043-.043-8.176-.231-32.7-.145-16.351-.07-8.175-.055-2.083c-.04-.716-.072-1.436-.142-2.132a51.194 51.194 0 0 0-.552-4.188c-.965-5.551-2.872-10.909-5.511-15.84-2.654-4.925-6.016-9.438-9.896-13.413-4.507-4.595-9.658-8.463-15.183-11.658l.878-1.012 8.307-9.56c17.769 12.315 29.044 30.585 29.044 50.993v72.386zm2.474-13.154V171.3a23.14 23.14 0 0 0 4.591-3.165c3.854-3.401 6.406-8.104 7.01-12.976-1.319 4.731-4.431 8.731-8.329 11.261a20.438 20.438 0 0 1-3.271 1.729v-33.9a20.396 20.396 0 0 1 3.27 1.73c3.9 2.529 7.01 6.528 8.331 11.261-.604-4.87-3.156-9.574-7.01-12.975a22.752 22.752 0 0 0-4.591-3.165v-5.176c10.587 3.451 18.223 12.998 18.223 24.215-.002 11.218-7.638 20.766-18.224 24.217z"></path><path d="M161.602 233.817l-.3-.154-.27.235c-2.764 2.426-6.34 3.907-9.918 4.953-3.612 1.025-7.361 1.553-11.117 1.5-3.753.05-7.504-.476-11.116-1.501-3.576-1.047-7.152-2.526-9.916-4.954l-.267-.235-.306.154c-.547.275-1.214.827-1.284 1.649-.068.776.299 1.395.643 1.887.74.989 1.672 1.707 2.628 2.358 1.931 1.281 4.038 2.216 6.192 2.964 2.162.739 4.395 1.241 6.641 1.572 2.249.33 4.524.457 6.787.374a37.26 37.26 0 0 0 6.786-.375c2.247-.33 4.479-.835 6.64-1.573 2.156-.748 4.264-1.683 6.194-2.964.956-.651 1.89-1.37 2.628-2.359.346-.49.707-1.115.643-1.873-.078-.847-.74-1.375-1.288-1.658zm-29.474 7.885c-2.354.561-10.658-2.463-12.098-4.404-.168-.223.262-.358.599-.35l11.265 4.1c.26.209.502.589.234.654zm27.842-4.404c-1.443 1.941-9.746 4.965-12.098 4.404-.271-.065-.029-.445.234-.654l11.266-4.1c.334-.009.764.127.598.35z"></path><path d="M161.601 228.887l-.301-.153-.268.236c-2.764 2.427-6.34 3.907-9.916 4.953-3.614 1.024-7.363 1.551-11.119 1.499-3.753.049-7.504-.476-11.116-1.5-3.576-1.047-7.153-2.526-9.916-4.954l-.267-.235-.305.152c-.548.276-1.215.828-1.285 1.65-.068.777.299 1.395.642 1.887.741.989 1.673 1.707 2.629 2.359 1.931 1.281 4.037 2.215 6.192 2.964 2.162.738 4.394 1.242 6.641 1.573 2.249.33 4.524.456 6.787.373 2.262.083 4.537-.044 6.786-.375s4.479-.835 6.642-1.573c2.156-.749 4.262-1.684 6.192-2.965.956-.652 1.89-1.371 2.628-2.36.346-.489.707-1.117.643-1.872-.076-.851-.742-1.377-1.289-1.659zm-29.473 7.887c-2.354.563-10.652-2.464-12.098-4.404-.168-.224.262-.358.599-.35l11.263 4.101c.264.21.504.589.236.653zm27.842-4.404c-1.447 1.94-9.749 4.967-12.1 4.404-.27-.064-.03-.443.236-.653l11.262-4.101c.338-.008.768.126.602.35z"></path><path d="M161.602 223.958l-.3-.155-.27.237c-2.764 2.427-6.34 3.907-9.916 4.953-3.614 1.023-7.363 1.551-11.119 1.498-3.753.049-7.504-.475-11.116-1.499-3.576-1.047-7.153-2.526-9.916-4.954l-.267-.235-.306.154c-.547.275-1.214.826-1.284 1.649-.068.776.299 1.395.642 1.887.741.988 1.673 1.707 2.629 2.358 1.931 1.281 4.038 2.216 6.192 2.964 2.162.738 4.394 1.241 6.641 1.572 2.249.329 4.524.457 6.787.375a37.53 37.53 0 0 0 6.786-.375c2.247-.332 4.479-.837 6.642-1.574 2.156-.748 4.262-1.683 6.192-2.965.956-.65 1.89-1.37 2.628-2.358.346-.491.707-1.116.643-1.874-.078-.847-.74-1.375-1.288-1.658zm-29.474 7.884c-2.355.563-10.656-2.46-12.098-4.402-.168-.225.262-.358.599-.351l11.263 4.101c.262.209.504.588.236.652zm27.842-4.403c-1.443 1.942-9.745 4.965-12.1 4.402-.27-.063-.027-.442.236-.652l11.266-4.101c.334-.007.764.127.598.351z"></path><path d="M161.601 219.03l-.301-.153-.268.235c-2.765 2.425-6.34 3.906-9.918 4.952-3.612 1.024-7.361 1.551-11.117 1.498-3.753.05-7.504-.474-11.116-1.5-3.576-1.046-7.152-2.526-9.916-4.952l-.266-.234-.304.152c-.551.273-1.218.827-1.287 1.649-.068.776.299 1.395.643 1.887.74.989 1.672 1.707 2.628 2.358 1.932 1.28 4.038 2.215 6.192 2.963 2.162.738 4.395 1.241 6.641 1.572 2.249.329 4.524.457 6.787.374a37.44 37.44 0 0 0 6.786-.375c2.247-.331 4.479-.835 6.64-1.572 2.156-.749 4.264-1.684 6.194-2.965.956-.65 1.888-1.369 2.628-2.358.344-.49.707-1.115.643-1.874-.077-.845-.74-1.376-1.289-1.657zm-29.473 7.884c-2.354.562-10.656-2.462-12.098-4.402-.168-.223.26-.358.599-.349l11.263 4.099c.264.21.504.59.236.652zm27.842-4.402c-1.443 1.94-9.746 4.964-12.098 4.402-.271-.063-.032-.442.234-.652l11.262-4.099c.338-.01.768.126.602.349zM84.232 124.267v60.948a6.793 6.793 0 0 0 6.786 6.786h97.961c3.741 0 6.784-3.044 6.784-6.786v-60.948c0-3.742-3.043-6.787-6.784-6.787h-97.96c-3.743-.001-6.787 3.044-6.787 6.787zm87.011 20.056c8.058 0 14.59 6.53 14.59 14.586s-6.532 14.587-14.59 14.587c-8.059 0-14.588-6.531-14.588-14.587s6.53-14.586 14.588-14.586zm-62.487 0c8.054 0 14.586 6.53 14.586 14.586s-6.532 14.587-14.586 14.587c-8.057 0-14.588-6.531-14.588-14.587s6.531-14.586 14.588-14.586z"></path></g><!----></svg>