<svg data-v-423bf9ae="" xmlns="http://www.w3.org/2000/svg" viewBox="0 0 355.5162341248861 60" class="font"><!----><!----><!----><g data-v-423bf9ae="" id="2e7b4d2c-8f49-4c79-9e57-74df70a1d67e" fill="black" transform="matrix(5.899704970490485,0,0,5.899704970490485,-1.8879009683228958,-28.023597656155488)"><path d="M4.61 14.49L4.61 14.49L4.61 14.49Q4.41 14.66 4.07 14.76L4.07 14.76L4.07 14.76Q3.74 14.87 3.28 14.87L3.28 14.87L3.28 14.87Q2.70 14.87 2.28 14.71L2.28 14.71L2.28 14.71Q1.86 14.55 1.72 14.25L1.72 14.25L1.72 14.25Q1.57 13.92 1.36 13.19L1.36 13.19L1.36 13.19Q1.16 12.46 0.97 11.59L0.97 11.59L0.97 11.59Q0.77 10.72 0.59 9.83L0.59 9.83L0.59 9.83Q0.42 8.93 0.32 8.25L0.32 8.25L0.32 8.25Q0.52 8.05 0.85 7.90L0.85 7.90L0.85 7.90Q1.18 7.76 1.57 7.76L1.57 7.76L1.57 7.76Q2.06 7.76 2.37 7.97L2.37 7.97L2.37 7.97Q2.69 8.19 2.76 8.72L2.76 8.72L2.76 8.72Q2.90 9.79 3.00 10.48L3.00 10.48L3.00 10.48Q3.09 11.17 3.16 11.61L3.16 11.61L3.16 11.61Q3.22 12.05 3.25 12.29L3.25 12.29L3.25 12.29Q3.29 12.52 3.32 12.66L3.32 12.66L3.37 12.66L3.37 12.66Q3.42 12.43 3.52 12.01L3.52 12.01L3.52 12.01Q3.63 11.58 3.77 11.03L3.77 11.03L3.77 11.03Q3.91 10.49 4.06 9.85L4.06 9.85L4.06 9.85Q4.21 9.21 4.37 8.58L4.37 8.58L4.37 8.58Q4.65 8.43 4.92 8.34L4.92 8.34L4.92 8.34Q5.19 8.26 5.60 8.26L5.60 8.26L5.60 8.26Q6.09 8.26 6.44 8.41L6.44 8.41L6.44 8.41Q6.79 8.57 6.89 8.89L6.89 8.89L6.89 8.89Q7.06 9.51 7.21 10.09L7.21 10.09L7.21 10.09Q7.36 10.67 7.49 11.17L7.49 11.17L7.49 11.17Q7.62 11.66 7.71 12.05L7.71 12.05L7.71 12.05Q7.81 12.43 7.85 12.66L7.85 12.66L7.92 12.66L7.92 12.66Q8.08 11.58 8.22 10.42L8.22 10.42L8.22 10.42Q8.37 9.25 8.50 8.05L8.50 8.05L8.50 8.05Q8.75 7.90 9.03 7.83L9.03 7.83L9.03 7.83Q9.31 7.76 9.59 7.76L9.59 7.76L9.59 7.76Q10.08 7.76 10.40 7.97L10.40 7.97L10.40 7.97Q10.72 8.18 10.72 8.69L10.72 8.69L10.72 8.69Q10.72 8.92 10.65 9.37L10.65 9.37L10.65 9.37Q10.58 9.81 10.47 10.37L10.47 10.37L10.47 10.37Q10.36 10.93 10.21 11.55L10.21 11.55L10.21 11.55Q10.07 12.17 9.92 12.74L9.92 12.74L9.92 12.74Q9.77 13.31 9.64 13.78L9.64 13.78L9.64 13.78Q9.51 14.24 9.41 14.49L9.41 14.49L9.41 14.49Q9.21 14.66 8.81 14.76L8.81 14.76L8.81 14.76Q8.40 14.87 7.94 14.87L7.94 14.87L7.94 14.87Q6.76 14.87 6.55 14.28L6.55 14.28L6.55 14.28Q6.47 14.03 6.34 13.64L6.34 13.64L6.34 13.64Q6.22 13.26 6.08 12.80L6.08 12.80L6.08 12.80Q5.94 12.33 5.81 11.84L5.81 11.84L5.81 11.84Q5.68 11.34 5.60 10.88L5.60 10.88L5.60 10.88Q5.50 11.37 5.36 11.89L5.36 11.89L5.36 11.89Q5.22 12.42 5.08 12.92L5.08 12.92L5.08 12.92Q4.93 13.41 4.80 13.83L4.80 13.83L4.80 13.83Q4.68 14.24 4.61 14.49ZM15.40 14.92L15.40 14.92L15.40 14.92Q14.57 14.92 13.87 14.69L13.87 14.69L13.87 14.69Q13.16 14.46 12.63 14.00L12.63 14.00L12.63 14.00Q12.11 13.54 11.81 12.84L11.81 12.84L11.81 12.84Q11.51 12.14 11.51 11.20L11.51 11.20L11.51 11.20Q11.51 10.28 11.81 9.61L11.81 9.61L11.81 9.61Q12.11 8.95 12.60 8.52L12.60 8.52L12.60 8.52Q13.09 8.09 13.72 7.89L13.72 7.89L13.72 7.89Q14.35 7.69 15.01 7.69L15.01 7.69L15.01 7.69Q15.75 7.69 16.36 7.91L16.36 7.91L16.36 7.91Q16.97 8.13 17.41 8.53L17.41 8.53L17.41 8.53Q17.85 8.92 18.09 9.46L18.09 9.46L18.09 9.46Q18.34 10.01 18.34 10.65L18.34 10.65L18.34 10.65Q18.34 11.13 18.07 11.38L18.07 11.38L18.07 11.38Q17.81 11.63 17.33 11.70L17.33 11.70L13.87 12.22L13.87 12.22Q14.03 12.68 14.50 12.92L14.50 12.92L14.50 12.92Q14.98 13.15 15.60 13.15L15.60 13.15L15.60 13.15Q16.17 13.15 16.68 13.00L16.68 13.00L16.68 13.00Q17.19 12.85 17.51 12.66L17.51 12.66L17.51 12.66Q17.74 12.80 17.89 13.05L17.89 13.05L17.89 13.05Q18.05 13.30 18.05 13.58L18.05 13.58L18.05 13.58Q18.05 14.21 17.46 14.52L17.46 14.52L17.46 14.52Q17.01 14.76 16.45 14.84L16.45 14.84L16.45 14.84Q15.89 14.92 15.40 14.92ZM15.01 9.42L15.01 9.42L15.01 9.42Q14.67 9.42 14.43 9.53L14.43 9.53L14.43 9.53Q14.18 9.65 14.03 9.82L14.03 9.82L14.03 9.82Q13.87 10.00 13.80 10.21L13.80 10.21L13.80 10.21Q13.72 10.43 13.71 10.65L13.71 10.65L16.10 10.26L16.10 10.26Q16.06 9.98 15.79 9.70L15.79 9.70L15.79 9.70Q15.53 9.42 15.01 9.42ZM19.52 13.05L19.52 5.59L19.52 5.59Q19.66 5.54 19.96 5.50L19.96 5.50L19.96 5.50Q20.27 5.45 20.59 5.45L20.59 5.45L20.59 5.45Q20.90 5.45 21.15 5.49L21.15 5.49L21.15 5.49Q21.39 5.53 21.56 5.66L21.56 5.66L21.56 5.66Q21.73 5.78 21.81 6.00L21.81 6.00L21.81 6.00Q21.90 6.22 21.90 6.57L21.90 6.57L21.90 7.94L21.90 7.94Q22.25 7.80 22.56 7.74L22.56 7.74L22.56 7.74Q22.88 7.69 23.25 7.69L23.25 7.69L23.25 7.69Q23.93 7.69 24.53 7.92L24.53 7.92L24.53 7.92Q25.13 8.16 25.59 8.62L25.59 8.62L25.59 8.62Q26.05 9.07 26.32 9.74L26.32 9.74L26.32 9.74Q26.59 10.42 26.59 11.30L26.59 11.30L26.59 11.30Q26.59 12.21 26.31 12.89L26.31 12.89L26.31 12.89Q26.04 13.57 25.55 14.01L25.55 14.01L25.55 14.01Q25.06 14.46 24.35 14.69L24.35 14.69L24.35 14.69Q23.65 14.92 22.79 14.92L22.79 14.92L22.79 14.92Q21.87 14.92 21.22 14.71L21.22 14.71L21.22 14.71Q20.58 14.49 20.13 14.17L20.13 14.17L20.13 14.17Q19.52 13.73 19.52 13.05L19.52 13.05ZM22.79 13.05L22.79 13.05L22.79 13.05Q23.44 13.05 23.79 12.61L23.79 12.61L23.79 12.61Q24.15 12.17 24.15 11.30L24.15 11.30L24.15 11.30Q24.15 10.42 23.79 9.98L23.79 9.98L23.79 9.98Q23.42 9.55 22.81 9.55L22.81 9.55L22.81 9.55Q22.53 9.55 22.32 9.60L22.32 9.60L22.32 9.60Q22.12 9.66 21.88 9.77L21.88 9.77L21.88 12.82L21.88 12.82Q22.04 12.92 22.25 12.99L22.25 12.99L22.25 12.99Q22.47 13.05 22.79 13.05ZM27.45 11.30L27.45 11.30L27.45 11.30Q27.45 10.37 27.73 9.70L27.73 9.70L27.73 9.70Q28.01 9.02 28.51 8.57L28.51 8.57L28.51 8.57Q29.01 8.12 29.67 7.90L29.67 7.90L29.67 7.90Q30.34 7.69 31.11 7.69L31.11 7.69L31.11 7.69Q31.39 7.69 31.65 7.74L31.65 7.74L31.65 7.74Q31.92 7.78 32.09 7.85L32.09 7.85L32.09 5.59L32.09 5.59Q32.23 5.54 32.54 5.50L32.54 5.50L32.54 5.50Q32.84 5.45 33.17 5.45L33.17 5.45L33.17 5.45Q33.47 5.45 33.72 5.49L33.72 5.49L33.72 5.49Q33.96 5.53 34.13 5.66L34.13 5.66L34.13 5.66Q34.30 5.78 34.38 6.00L34.38 6.00L34.38 6.00Q34.47 6.22 34.47 6.57L34.47 6.57L34.47 13.20L34.47 13.20Q34.47 13.86 33.85 14.25L33.85 14.25L33.85 14.25Q33.45 14.52 32.80 14.72L32.80 14.72L32.80 14.72Q32.16 14.92 31.32 14.92L31.32 14.92L31.32 14.92Q30.41 14.92 29.69 14.67L29.69 14.67L29.69 14.67Q28.97 14.42 28.47 13.94L28.47 13.94L28.47 13.94Q27.97 13.47 27.71 12.80L27.71 12.80L27.71 12.80Q27.45 12.14 27.45 11.30ZM31.43 9.55L31.43 9.55L31.43 9.55Q30.67 9.55 30.27 9.98L30.27 9.98L30.27 9.98Q29.86 10.42 29.86 11.30L29.86 11.30L29.86 11.30Q29.86 12.17 30.24 12.61L30.24 12.61L30.24 12.61Q30.62 13.05 31.33 13.05L31.33 13.05L31.33 13.05Q31.58 13.05 31.79 12.97L31.79 12.97L31.79 12.97Q31.99 12.89 32.10 12.80L32.10 12.80L32.10 9.72L32.10 9.72Q31.82 9.55 31.43 9.55ZM38.33 9.91L38.33 14.69L38.33 14.69Q38.19 14.73 37.89 14.77L37.89 14.77L37.89 14.77Q37.59 14.81 37.27 14.81L37.27 14.81L37.27 14.81Q36.96 14.81 36.71 14.77L36.71 14.77L36.71 14.77Q36.47 14.73 36.30 14.60L36.30 14.60L36.30 14.60Q36.13 14.48 36.04 14.26L36.04 14.26L36.04 14.26Q35.95 14.04 35.95 13.69L35.95 13.69L35.95 9.49L35.95 9.49Q35.95 9.17 36.07 8.94L36.07 8.94L36.07 8.94Q36.19 8.71 36.41 8.53L36.41 8.53L36.41 8.53Q36.64 8.34 36.97 8.20L36.97 8.20L36.97 8.20Q37.30 8.05 37.67 7.94L37.67 7.94L37.67 7.94Q38.05 7.83 38.46 7.76L38.46 7.76L38.46 7.76Q38.86 7.70 39.27 7.70L39.27 7.70L39.27 7.70Q39.94 7.70 40.33 7.96L40.33 7.96L40.33 7.96Q40.73 8.22 40.73 8.81L40.73 8.81L40.73 8.81Q40.73 9.00 40.67 9.19L40.67 9.19L40.67 9.19Q40.61 9.38 40.53 9.53L40.53 9.53L40.53 9.53Q40.24 9.53 39.93 9.56L39.93 9.56L39.93 9.56Q39.62 9.59 39.33 9.65L39.33 9.65L39.33 9.65Q39.03 9.70 38.77 9.77L38.77 9.77L38.77 9.77Q38.51 9.83 38.33 9.91L38.33 9.91ZM48.75 11.30L48.75 11.30L48.75 11.30Q48.75 12.17 48.48 12.85L48.48 12.85L48.48 12.85Q48.22 13.52 47.73 13.99L47.73 13.99L47.73 13.99Q47.25 14.45 46.58 14.69L46.58 14.69L46.58 14.69Q45.91 14.92 45.08 14.92L45.08 14.92L45.08 14.92Q44.25 14.92 43.58 14.67L43.58 14.67L43.58 14.67Q42.91 14.42 42.43 13.95L42.43 13.95L42.43 13.95Q41.94 13.48 41.68 12.81L41.68 12.81L41.68 12.81Q41.41 12.14 41.41 11.30L41.41 11.30L41.41 11.30Q41.41 10.47 41.68 9.80L41.68 9.80L41.68 9.80Q41.94 9.13 42.43 8.66L42.43 8.66L42.43 8.66Q42.91 8.19 43.58 7.94L43.58 7.94L43.58 7.94Q44.25 7.69 45.08 7.69L45.08 7.69L45.08 7.69Q45.91 7.69 46.58 7.95L46.58 7.95L46.58 7.95Q47.25 8.20 47.73 8.67L47.73 8.67L47.73 8.67Q48.22 9.14 48.48 9.81L48.48 9.81L48.48 9.81Q48.75 10.49 48.75 11.30ZM43.85 11.30L43.85 11.30L43.85 11.30Q43.85 12.15 44.18 12.61L44.18 12.61L44.18 12.61Q44.51 13.06 45.09 13.06L45.09 13.06L45.09 13.06Q45.68 13.06 46.00 12.60L46.00 12.60L46.00 12.60Q46.31 12.14 46.31 11.30L46.31 11.30L46.31 11.30Q46.31 10.46 45.99 10.00L45.99 10.00L45.99 10.00Q45.67 9.55 45.08 9.55L45.08 9.55L45.08 9.55Q44.49 9.55 44.17 10.00L44.17 10.00L44.17 10.00Q43.85 10.46 43.85 11.30ZM49.85 6.01L49.85 6.01L49.85 6.01Q49.85 5.47 50.21 5.11L50.21 5.11L50.21 5.11Q50.57 4.75 51.16 4.75L51.16 4.75L51.16 4.75Q51.74 4.75 52.10 5.11L52.10 5.11L52.10 5.11Q52.46 5.47 52.46 6.01L52.46 6.01L52.46 6.01Q52.46 6.54 52.10 6.90L52.10 6.90L52.10 6.90Q51.74 7.27 51.16 7.27L51.16 7.27L51.16 7.27Q50.57 7.27 50.21 6.90L50.21 6.90L50.21 6.90Q49.85 6.54 49.85 6.01ZM52.35 8.99L52.35 14.69L52.35 14.69Q52.19 14.71 51.89 14.76L51.89 14.76L51.89 14.76Q51.59 14.81 51.28 14.81L51.28 14.81L51.28 14.81Q50.97 14.81 50.73 14.77L50.73 14.77L50.73 14.77Q50.48 14.73 50.32 14.60L50.32 14.60L50.32 14.60Q50.15 14.48 50.06 14.26L50.06 14.26L50.06 14.26Q49.97 14.04 49.97 13.69L49.97 13.69L49.97 7.99L49.97 7.99Q50.12 7.97 50.42 7.92L50.42 7.92L50.42 7.92Q50.72 7.87 51.03 7.87L51.03 7.87L51.03 7.87Q51.34 7.87 51.58 7.91L51.58 7.91L51.58 7.91Q51.83 7.95 52.00 8.08L52.00 8.08L52.00 8.08Q52.16 8.20 52.25 8.42L52.25 8.42L52.25 8.42Q52.35 8.64 52.35 8.99L52.35 8.99ZM53.56 11.30L53.56 11.30L53.56 11.30Q53.56 10.37 53.84 9.70L53.84 9.70L53.84 9.70Q54.12 9.02 54.62 8.57L54.62 8.57L54.62 8.57Q55.12 8.12 55.78 7.90L55.78 7.90L55.78 7.90Q56.45 7.69 57.22 7.69L57.22 7.69L57.22 7.69Q57.50 7.69 57.76 7.74L57.76 7.74L57.76 7.74Q58.03 7.78 58.20 7.85L58.20 7.85L58.20 5.59L58.20 5.59Q58.34 5.54 58.65 5.50L58.65 5.50L58.65 5.50Q58.95 5.45 59.28 5.45L59.28 5.45L59.28 5.45Q59.58 5.45 59.83 5.49L59.83 5.49L59.83 5.49Q60.07 5.53 60.24 5.66L60.24 5.66L60.24 5.66Q60.41 5.78 60.49 6.00L60.49 6.00L60.49 6.00Q60.58 6.22 60.58 6.57L60.58 6.57L60.58 13.20L60.58 13.20Q60.58 13.86 59.96 14.25L59.96 14.25L59.96 14.25Q59.56 14.52 58.91 14.72L58.91 14.72L58.91 14.72Q58.27 14.92 57.43 14.92L57.43 14.92L57.43 14.92Q56.52 14.92 55.80 14.67L55.80 14.67L55.80 14.67Q55.08 14.42 54.58 13.94L54.58 13.94L54.58 13.94Q54.08 13.47 53.82 12.80L53.82 12.80L53.82 12.80Q53.56 12.14 53.56 11.30ZM57.54 9.55L57.54 9.55L57.54 9.55Q56.78 9.55 56.38 9.98L56.38 9.98L56.38 9.98Q55.97 10.42 55.97 11.30L55.97 11.30L55.97 11.30Q55.97 12.17 56.35 12.61L56.35 12.61L56.35 12.61Q56.73 13.05 57.44 13.05L57.44 13.05L57.44 13.05Q57.69 13.05 57.90 12.97L57.90 12.97L57.90 12.97Q58.10 12.89 58.21 12.80L58.21 12.80L58.21 9.72L58.21 9.72Q57.93 9.55 57.54 9.55Z"></path></g><!----><!----></svg>